<?xml version="1.0" encoding="UTF-8"?>
<!DOCTYPE svg PUBLIC "-//W3C//DTD SVG 1.1//EN" "http://www.w3.org/Graphics/SVG/1.1/DTD/svg11.dtd">
<!-- Creator: CorelDRAW (Versión de evaluación) -->
<svg xmlns="http://www.w3.org/2000/svg" xml:space="preserve" width="330.2mm" height="215.9mm" version="1.1" shape-rendering="geometricPrecision" text-rendering="geometricPrecision" image-rendering="optimizeQuality" fill-rule="evenodd" clip-rule="evenodd"
viewBox="0 0 33020 21590"
 xmlns:xlink="http://www.w3.org/1999/xlink"
 xmlns:xodm="http://www.corel.com/coreldraw/odm/2003">
 <g id="Capa_x0020_1">
  <metadata id="CorelCorpID_0Corel-Layer"/>
  <polygon fill="#B1E3FD" fill-rule="nonzero" points="4162.73,10751.66 4162.73,8652.97 6424.54,8652.97 4162.73,10751.65 "/>
  <polygon fill="#B1E3FD" fill-rule="nonzero" points="1945.24,10751.66 1945.24,8652.97 4207.09,8652.97 1945.25,10751.65 "/>
  <polygon fill="#2266F9" fill-rule="nonzero" points="5182.76,10710.5 1945.24,10710.5 1945.24,12233.05 5182.76,12233.05 "/>
  <polygon fill="#B1E3FD" fill-rule="nonzero" points="1945.27,10710.5 -316.58,10710.5 -316.58,12233.05 1945.27,12233.05 "/>
  <polygon fill="#50B8FB" fill-rule="nonzero" points="4207.09,8652.97 4207.09,10751.65 1945.24,10751.66 4207.08,8652.98 "/>
  <path fill="#50B8FB" fill-rule="nonzero" d="M1945.27 8652.97l0 2098.68 -2261.85 0.01 2261.84 -2098.68 0.01 -0.01zm4479.27 -41.13l0 2098.68 -2261.81 0.02 2261.81 -2098.66 0 -0.04z"/>
  <path fill="#B1E3FD" fill-rule="nonzero" d="M8022.06 8063.54c-955.25,0 -1729.63,718.52 -1729.63,1604.9 0,886.35 774.38,1604.86 1729.63,1604.86 955.26,0 1729.63,-718.51 1729.63,-1604.86 0,-886.35 -774.37,-1604.86 -1729.63,-1604.86l0 -0.04z"/>
  <path fill="#50B8FB" fill-rule="nonzero" d="M8022.06 9009.97c-391.88,0 -709.6,294.8 -709.6,658.41 0,363.64 317.72,658.42 709.6,658.42 391.88,0 709.6,-294.78 709.6,-658.42 0,-363.64 -317.72,-658.38 -709.6,-658.38l0 -0.03zm1596.58 2263.31l0 -2098.66 2261.8 0 -2261.82 2098.66 0.02 0z"/>
  <path fill="#D3EEFE" fill-rule="nonzero" d="M33439.74 7563.42c-449,0 -879.6,167.26 -1197.09,465.06 -317.49,297.77 -495.83,701.63 -495.83,1122.79 0,421.12 178.34,824.99 495.83,1122.79 317.48,297.78 748.08,465.06 1197.09,465.06l0 -737.16c-241.02,-0.19 -472.22,-90.03 -641.4,-249.15 -170.09,-159.55 -265.67,-375.92 -265.67,-601.53 0,-225.65 95.56,-442.01 265.67,-601.57 169.19,-159.14 400.38,-248.97 641.35,-249.17l0.05 -737.12z"/>
  <path fill="#50B8FB" fill-rule="nonzero" d="M33439.7 6231.61c-829.65,0 -1625.29,307.58 -2211.96,855.15 -586.66,547.51 -916.22,1290.15 -916.22,2064.48 0,774.31 329.56,1516.95 916.22,2064.48 586.67,547.51 1382.31,855.12 2211.96,855.12l0 -1355.42c-444.93,-0.21 -871.7,-165.25 -1185.04,-458.07 -314.28,-293.32 -490.85,-691.2 -490.85,-1106.03 0,-414.86 176.57,-812.74 490.85,-1106.07 313.34,-292.97 740.12,-458.03 1185.07,-458.22l-0.03 -1355.42z"/>
  <path fill="none" fill-rule="nonzero" stroke="#2266F9" stroke-width="86.6" stroke-miterlimit="22.9256" d="M31397.18 11336.69c-1117.89,0 -2024.13,840.86 -2024.13,1878.11 0,1037.25 906.24,1878.11 2024.13,1878.11 1117.89,0 2024.12,-840.86 2024.12,-1878.11 0,-1037.25 -906.23,-1878.11 -2024.12,-1878.11z"/>
  <path fill="none" fill-rule="nonzero" stroke="#2266F9" stroke-width="86.6" stroke-miterlimit="22.9256" d="M31397.2 11678.16c-914.64,0 -1656.12,687.99 -1656.12,1536.65 0,848.67 741.48,1536.65 1656.12,1536.65 914.65,0 1656.12,-687.98 1656.12,-1536.65 0,-848.66 -741.47,-1536.65 -1656.12,-1536.65z"/>
  <path fill="none" fill-rule="nonzero" stroke="#2266F9" stroke-width="86.6" stroke-miterlimit="22.9256" d="M31397.18 11985.49c-731.72,0 -1324.9,550.39 -1324.9,1229.29 0,678.93 593.18,1229.32 1324.9,1229.32 731.71,0 1324.89,-550.39 1324.89,-1229.32 0,-678.9 -593.18,-1229.29 -1324.89,-1229.29z"/>
  <path fill="none" fill-rule="nonzero" stroke="#2266F9" stroke-width="86.6" stroke-miterlimit="22.9256" d="M31397.2 12326.96c-528.47,0 -956.87,397.48 -956.87,887.82 0,490.33 428.4,887.85 956.87,887.85 528.47,0 956.88,-397.51 956.88,-887.85 0,-490.35 -428.41,-887.82 -956.88,-887.82z"/>
  <path fill="none" fill-rule="nonzero" stroke="#2266F9" stroke-width="86.6" stroke-miterlimit="22.9256" d="M31397.18 12668.42c-325.22,0 -588.86,244.59 -588.86,546.34 0,301.76 263.64,546.38 588.86,546.38 325.21,0 588.82,-244.62 588.82,-546.38 0,-301.75 -263.61,-546.34 -588.82,-546.34z"/>
  <path fill="none" fill-rule="nonzero" stroke="#B1E3FD" stroke-width="86.6" stroke-miterlimit="22.9256" d="M31397.2 12975.73c-142.25,-0.03 -257.63,107.03 -257.63,239.02 0,132 115.38,239.05 257.63,239.05 142.26,0 257.64,-107.05 257.64,-239.05 0,-131.99 -115.38,-239.05 -257.64,-239.05l0 0.03z"/>
  <polygon fill="#2266F9" fill-rule="nonzero" points="28802.62,11900.14 30679.54,11900.14 30679.54,10636.67 28802.62,10636.67 "/>
  <polygon fill="#50B8FB" fill-rule="nonzero" points="28802.62,13607.52 28802.62,11866 30679.54,11866 "/>
  <polygon fill="none" fill-rule="nonzero" stroke="#50B8FB" stroke-width="57.7" stroke-miterlimit="22.9256" points="25956.78,12488.14 27818.98,9693.23 29681.21,12488.14 "/>
  <polygon fill="#50B8FB" fill-rule="nonzero" points="26383.71,9081.9 28311.97,11950.28 24455.48,11950.28 "/>
  <image x="42624.37" y="2818.42" width="20825.6" height="2857.88" xlink:href="banner-pattern33_Images\banner-pattern33_ImgID1.png"/>
 </g>
</svg>
